<?xml version="1.0" encoding="utf-8"?>
<!-- Generator: Adobe Illustrator 16.0.0, SVG Export Plug-In . SVG Version: 6.00 Build 0)  -->
<!DOCTYPE svg PUBLIC "-//W3C//DTD SVG 1.1//EN" "http://www.w3.org/Graphics/SVG/1.1/DTD/svg11.dtd">
<svg version="1.1" id="Capa_1" xmlns="http://www.w3.org/2000/svg" xmlns:xlink="http://www.w3.org/1999/xlink" x="0px" y="0px"
	 width="810px" height="416px" viewBox="0 0 810 416" enable-background="new 0 0 810 416" xml:space="preserve">
<g>
	<path fill-rule="evenodd" clip-rule="evenodd" stroke="#FCFCFC" stroke-width="16" stroke-miterlimit="10" d="M173.259,169.534
		c11.241,2.298,45.697,5.852,57.432,5.919c13.951,0.08,20.33,5.105,20.122,16.958c-0.4,22.794-0.116,45.596-0.116,73.229
		c32.185-26.987,61.23-50.343,88.767-74.881c12.695-11.315,25.937-15.712,44.661-15.563c97.8,0.776,195.623,0.362,293.434,0.362
		c3.939,0,8.513-1.082,11.692,0.218c7.731,3.168,14.817,7.443,22.166,11.271c-7.631,3.56-15.233,10.16-22.906,10.215
		c-99.112,0.696-198.245,0.722-297.368,0.204c-16.164-0.083-28.086,2.97-39.522,13.255c-25.875,23.266-52.874,45.752-80.905,67.203
		c-7.422,5.685-20.634,9.611-30.499,8.763c-14.602-1.258-14.669-13.427-14.714-23.46c-0.097-21.267-0.032-42.535-0.032-62.395
		c-21.023-4.695-40.775-1.956-58.515-8.295c-21.151-7.558-36.564-24.398-48.053-38.695c-9.702-12.069-16.601-26.015-21.803-40.95
		C97.1,101.938,128.476,160.375,173.259,169.534z"/>
	<path fill="#FCFCFC" stroke="#FCFCFC" stroke-width="18" stroke-miterlimit="10" d="M243.001,287.302
		c-0.973,0-1.924-0.039-2.828-0.117c-15.07-1.298-15.126-13.861-15.171-23.956c-0.069-15.257-0.056-30.505-0.042-45.252
		c0.005-5.668,0.01-11.259,0.01-16.744c-9.151-2.005-18.068-2.614-26.695-3.203c-11.083-0.757-21.552-1.472-31.488-5.023
		c-21.08-7.532-36.232-23.867-48.274-38.853c-8.989-11.182-16.147-24.625-21.885-41.098c-0.019-0.053-0.028-0.108-0.028-0.165
		c0-1.539,0.637-1.862,1.171-1.862c1.47,0,4.001,2.888,9.588,9.42c12.714,14.866,36.38,42.537,66,48.594
		c11.287,2.307,45.581,5.842,57.335,5.909c7.917,0.045,13.362,1.702,16.646,5.063c2.77,2.835,4.069,6.893,3.973,12.404
		c-0.278,15.835-0.225,32.013-0.167,49.141c0.024,7.342,0.049,14.972,0.052,23.008c9.277-7.774,18.324-15.274,27.082-22.534
		c21.344-17.694,41.505-34.408,60.853-51.649c12.343-11,25.526-15.693,44.085-15.693l0.913,0.003
		c41.172,0.327,84.959,0.473,141.975,0.473c25.245,0,50.487-0.028,75.729-0.055c25.241-0.028,50.483-0.055,75.727-0.055
		c1.21,0,2.514-0.106,3.774-0.209c1.28-0.104,2.604-0.213,3.855-0.213c1.771,0,3.121,0.215,4.252,0.678
		c5.529,2.266,10.806,5.137,15.908,7.913c2.093,1.139,4.186,2.277,6.3,3.378c0.168,0.088,0.272,0.264,0.269,0.454
		c-0.004,0.19-0.116,0.362-0.289,0.442c-2.396,1.118-4.843,2.57-7.208,3.974c-5.177,3.073-10.53,6.25-15.905,6.288
		c-53.012,0.373-107.776,0.561-162.773,0.561c-43.906,0-89.193-0.12-134.602-0.357l-0.635-0.002
		c-17.013,0-28.182,3.804-38.551,13.129c-26.223,23.579-53.453,46.198-80.935,67.229
		C264.116,283.609,252.594,287.302,243.001,287.302z M97.601,112.81c5.695,16.326,12.791,29.646,21.692,40.719
		c11.955,14.877,26.986,31.089,47.832,38.538c9.806,3.504,20.208,4.215,31.22,4.967c8.787,0.6,17.874,1.221,27.236,3.312
		c0.229,0.051,0.391,0.253,0.391,0.488c0,5.613-0.005,11.339-0.01,17.146c-0.014,14.745-0.027,29.992,0.042,45.246
		c0.045,10.192,0.096,21.745,14.257,22.965c0.875,0.075,1.798,0.113,2.742,0.113c9.244,0,20.771-3.69,27.41-8.775
		c27.461-21.015,54.671-43.617,80.875-67.178c10.571-9.507,21.934-13.386,39.219-13.386l0.641,0.002
		c45.406,0.237,90.69,0.357,134.596,0.357c54.995,0,109.758-0.188,162.766-0.561c5.105-0.037,10.341-3.144,15.403-6.148
		c2.093-1.242,4.248-2.521,6.394-3.586c-1.82-0.959-3.626-1.941-5.433-2.924c-5.079-2.763-10.331-5.621-15.81-7.866
		c-1.006-0.412-2.236-0.604-3.873-0.604c-1.21,0-2.514,0.106-3.774,0.209c-1.28,0.105-2.604,0.213-3.855,0.213
		c-25.243,0-50.484,0.027-75.726,0.055c-25.242,0.027-50.484,0.055-75.729,0.055c-57.019,0-100.808-0.146-141.982-0.473
		l-0.905-0.003c-18.291,0-31.276,4.618-43.419,15.44c-19.362,17.253-39.529,33.972-60.88,51.673
		c-9.015,7.473-18.336,15.201-27.898,23.219c-0.148,0.125-0.357,0.153-0.533,0.07c-0.176-0.082-0.289-0.259-0.289-0.453
		c0-8.429-0.026-16.409-0.052-24.076c-0.057-17.133-0.111-33.316,0.167-49.162c0.092-5.23-1.114-9.053-3.688-11.688
		c-3.087-3.16-8.3-4.718-15.937-4.762c-11.793-0.068-46.203-3.614-57.529-5.93c-29.957-6.126-53.768-33.967-66.56-48.924
		c-4.162-4.867-7.757-9.07-8.828-9.07C97.753,112.031,97.612,112.155,97.601,112.81z"/>
</g>
</svg>
