<?xml version="1.0" encoding="utf-8"?>
<!-- Generator: Adobe Illustrator 16.0.0, SVG Export Plug-In . SVG Version: 6.00 Build 0)  -->
<!DOCTYPE svg PUBLIC "-//W3C//DTD SVG 1.1//EN" "http://www.w3.org/Graphics/SVG/1.1/DTD/svg11.dtd">
<svg version="1.1" id="Capa_1" xmlns="http://www.w3.org/2000/svg" xmlns:xlink="http://www.w3.org/1999/xlink" x="0px" y="0px"
	 width="612px" height="564.781px" viewBox="0 0 612 564.781" enable-background="new 0 0 612 564.781" xml:space="preserve">
<path fill-rule="evenodd" clip-rule="evenodd" d="M495.593,79.165c-23.139-23.313-51.889-32.457-84.113-28.525
	c-41.793,5.1-70.234,28.099-84.842,67.715c-1.831,4.958-2.88,10.297-3.567,15.552c-0.566,4.337,2.002,7.369,5.724,8.275
	c3.23,0.789,6.039-0.812,7.887-5.078c1.387-3.202,2.248-6.63,3.342-9.961c4.895-14.913,12.129-28.485,23.637-39.362
	c21.389-20.217,47.406-25.479,75.588-21.966c18.229,2.271,33.332,11.388,46.191,24.325c28.068,28.242,30.051,66.907,13.742,97.125
	c-17.391,32.226-53.115,49.184-89.225,43.348c-14.541-2.352-25.707-8.499-32.732-22.159c-5.744-11.164-13.553-21.092-22.791-29.751
	c-12.988-12.174-28.201-19.277-46.146-19.92c-5.576-0.198-11.164-0.031-17.041-0.031c-0.055-0.294-0.205-0.864-0.262-1.443
	c-0.386-4.162-0.828-8.322-1.117-12.492c-1.667-23.92-10.016-45.21-26.28-62.839c-24.091-26.114-54.792-34.761-89.266-31.268
	c-23.71,2.404-43.583,13.144-60.026,30.35c-27.216,28.476-34.938,71.411-18.142,106.886c15.609,32.967,42.062,52.249,78.109,58.067
	c4.829,0.779,9.844,0.739,14.752,0.563c4.33-0.158,6.599-2.988,6.884-7.491c0.219-3.501-1.525-5.477-5.862-6.564
	c-0.885-0.221-1.803-0.353-2.714-0.443c-3.327-0.332-6.672-0.508-9.982-0.958c-19.119-2.592-36.009-9.987-49.794-23.72
	c-27.208-27.112-32.266-64.367-15.752-96.718c23.703-46.441,77.989-57.283,117.711-36.226
	c28.711,15.221,43.644,39.807,45.923,72.052c0.949,13.413-4.37,23.694-16.549,30.161c-2.14,1.137-4.056,2.98-5.613,4.878
	c-14.818,18.079-27.256,37.634-35.998,59.388c-8.603,21.398-14.545,43.418-14.396,66.71c0.127,20.148,7.338,37.285,22.757,50.451
	c8.002,6.834,16.577,13.003,24.984,19.351c1.293,0.977,3.084,1.292,4.643,1.916c0.438,0.174,1.038,0.219,1.281,0.539
	c2.599,3.393,1.551,9.142-2.06,11.571c-0.417,0.278-0.864,0.527-1.229,0.862c-11.555,10.604-20.429,22.947-24.749,38.231
	c-4.622,16.351-3.165,32.497,2.074,48.379c9.858,29.881,30.388,47.146,61.636,51.55c12.32,1.735,24.683,1.809,37.047,0.891
	c13.17-0.978,26.379-1.844,39.256-5.046c28.582-7.112,48.611-24.224,60.012-51.437c8.754-20.895,9.906-42.241,4.25-64.083
	c-2.291-8.845-2.945-17.826-1.205-26.844c1.928-10.006,7.012-18.27,14.197-25.438c1.771-1.772,2.855-4.414,3.74-6.841
	c0.764-2.103-0.461-4.057-2.641-4.332c-3.445-0.433-6.961-0.363-10.441-0.351c-0.613,0.002-1.34,0.655-1.816,1.185
	c-6.342,7.077-11.895,14.663-15.313,23.646c-5.484,14.425-4.977,29.026-1.127,43.64c2.904,11.025,4.484,22.112,3.082,33.495
	c-3.795,30.73-25.406,55.223-55.654,62.314c-21.875,5.127-44.212,5.822-66.586,5.391c-2.819-0.054-5.668-0.529-8.438-1.113
	c-31.368-6.608-55.919-42.25-47.658-76.216c7.837-32.229,38.712-57.203,73.331-50.526c15.397,2.967,28.911,9.497,39.249,21.525
	c13.834,16.099,17.422,34.931,13.881,55.433c-0.783,4.521-2.041,8.956-2.859,13.472c-0.451,2.505,0.137,4.871,2.566,6.313
	c4.494,2.67,8.189,1.693,10.734-2.902c0.762-1.377,1.428-2.852,1.873-4.36c9.73-32.89,2.328-61.372-22.145-85.375
	c-3.854-3.78-8.004-7.258-12.193-11.032c0.994-0.454,1.748-0.786,2.492-1.14c6.859-3.261,13.945-6.125,20.539-9.859
	c25.52-14.465,38.195-36.523,38.191-65.888c-0.006-16.19-3.094-31.911-7.008-47.515c-0.799-3.188-1.619-6.374-2.482-9.768
	c5.795-0.328,11.223-0.561,16.635-0.956c9.914-0.725,19.939-0.836,29.707-2.47c20.58-3.444,37.699-13.721,51.824-28.918
	c16.512-17.771,26.365-38.717,27.35-63.068C525.753,123.836,515.532,99.254,495.593,79.165z"/>
<path fill-rule="evenodd" clip-rule="evenodd" fill="#FFFFFF" d="M392.241,293.219c-3.787-28.28-13.383-54.446-29.094-78.283
	c-6.676-10.128-13.584-20.146-23.029-28.005c-10.627-8.845-22.866-13.453-36.754-12.967c-16.689,0.583-30.325,7.873-40.993,20.384
	c-26.427,30.992-42.175,66.75-45.285,107.458c-2.042,26.722,10.997,50.319,38.182,59.602c12.867,4.393,62.439,7.061,63.824,6.964
	c0.264-0.123,0.527-0.24,0.791-0.372c-0.264,0.132-0.527,0.249-0.791,0.372c12.442-0.867,24.417-2.326,35.872-6.79
	c15.752-6.138,27.754-16.238,34.078-32.285C393.651,317.603,393.88,305.466,392.241,293.219z"/>
<g>
	<path fill-rule="evenodd" clip-rule="evenodd" stroke="#FFFFFF" stroke-miterlimit="10" d="M298.227,291.201
		c-0.354,11.986-11.828,19.115-20.287,13.104c-7.383-5.246-12.137-4.243-19.418-0.054c-3.666,2.109-12.85,0.447-15.357-2.769
		c-2.955-3.79-3.762-12.485-1.356-16.661c10.143-17.596,43.209-16.987,53.987,0.32C297.208,287.411,297.825,290.17,298.227,291.201z
		"/>
	<path fill-rule="evenodd" clip-rule="evenodd" stroke="#FFFFFF" stroke-miterlimit="10" d="M369.755,290.375
		c0.348,12.16-10.604,20.167-19.014,14.293c-8.055-5.627-13.225-5.024-21.068,0.019c-3.236,2.079-12.341-0.294-15.224-3.675
		c-2.813-3.293-3.262-11.694-0.982-15.71c10.006-17.589,42.548-17.803,53.833-0.954
		C368.771,286.547,369.351,289.344,369.755,290.375z"/>
</g>
<rect x="113.666" y="78.05" fill-rule="evenodd" clip-rule="evenodd" fill="none" width="262.827" height="224.246"/>
<text transform="matrix(1 0 0 1 113.666 210.2778)" stroke="#000000" stroke-width="2" stroke-linecap="round" stroke-miterlimit="10" font-family="'Monospace'" font-size="209.2251">C</text>
<g>
	<rect x="234.975" y="78.05" fill="none" width="262.831" height="224.246"/>
	
		<text transform="matrix(-1 0 0 1 497.8037 210.2778)" stroke="#000000" stroke-width="2" stroke-linecap="round" stroke-miterlimit="10" font-family="'Monospace'" font-size="209.2251">C</text>
</g>
<g>
	<path fill-rule="evenodd" clip-rule="evenodd" fill="#1A1A18" stroke="#FFFFFF" stroke-miterlimit="10" d="M323.786,327.625
		c1.225-2.179,3.029-2.826,5.038-1.827c2.01,1.003,2.273,3.322,2.23,5.666c-0.098,5.906-1.133,11.39-3.637,16.239
		c-5.594-3.429-12.709-2.229-16.751,3.133c-1.396,1.851-2.834,2.379-4.706,1.345c-2.355-1.299-4.773-1.772-7.213-1.736
		c-3.915,0.057-7.013,1.756-8.353,6.605c-5.939-4.016-10.346-9.887-13.387-17.335c-1.417-3.475,1.247-6.032,4.587-4.77
		c7.6,7.192,15.744,11.821,25,9.26C314.393,342.048,319.504,335.407,323.786,327.625z"/>
	<path fill-rule="evenodd" clip-rule="evenodd" fill="#8C2621" stroke="#FFFFFF" stroke-miterlimit="10" d="M290.395,357.051
		c1.339-4.85,4.438-6.549,8.353-6.605c2.44-0.036,4.858,0.437,7.213,1.736c1.872,1.035,3.311,0.506,4.706-1.345
		c4.042-5.363,11.157-6.562,16.751-3.133c-2.538,7.173-7.163,11.38-13.072,13.561C306.171,364.281,298.148,363.018,290.395,357.051z
		"/>
	<path fill-rule="evenodd" clip-rule="evenodd" fill="#FFFFFF" stroke="#FFFFFF" stroke-miterlimit="10" d="M323.786,327.625
		c-4.282,7.782-9.394,14.423-17.191,16.581c-9.255,2.561-17.4-2.068-25-9.26c3.967,0.168,7.945,0.511,11.896,0.471
		c9.917-0.102,19.276-2.743,28.124-7.529C322.293,327.523,322.905,326.604,323.786,327.625z"/>
</g>
<g>
	<path fill-rule="evenodd" clip-rule="evenodd" fill="#E9BE30" stroke="#000000" stroke-width="3" stroke-miterlimit="10" d="
		M62.143,448.162c-0.07-3.286,0.432-5.128,4.256-4.248c1.443,0.332,2.983,0.22,4.473,0.376c17.865,1.871,35.725,3.801,53.595,5.627
		c27.634,2.824,55.271,5.609,82.914,8.33c3.431,0.337,5.386,1.242,4.91,5.328c-0.44,3.779-0.269,7.66-0.035,11.476
		c0.167,2.729-0.613,4.001-3.37,4.968c-7.256,2.543-11.297,8.812-10.629,16.197c0.676,7.475,5.359,12.403,11.568,15.77
		c4.522,2.453,2.136,6.229,2.103,9.24c-0.03,2.775-2.905,0.993-4.372,0.854c-16.557-1.584-33.099-3.332-49.647-5.004
		c-30.614-3.096-61.229-6.191-91.851-9.213c-2.806-0.277-3.996-1.146-3.923-4.255c0.219-9.319,0.079-18.647,0.077-27.972
		C62.211,466.478,62.338,457.315,62.143,448.162z M112.678,482.985c8.703-0.194,15.614-7.418,15.523-16.223
		c-0.094-8.941-7.441-15.98-16.473-15.78c-8.697,0.193-15.616,7.426-15.523,16.228C96.301,476.151,103.646,483.188,112.678,482.985z
		 M94.197,490.85c-0.069-5.589-4.646-9.986-10.255-9.856c-5.384,0.125-9.681,4.488-9.733,9.882
		c-0.057,5.607,4.408,10.116,10.007,10.108C89.813,500.976,94.268,496.452,94.197,490.85z M163.68,490.997
		c-5.363,0.252-9.547,4.732-9.471,10.141c0.078,5.587,4.668,9.986,10.27,9.846c5.569-0.141,9.922-4.797,9.72-10.396
		C173.997,495.024,169.289,490.732,163.68,490.997z"/>
	<path fill-rule="evenodd" clip-rule="evenodd" fill="#E9BE30" stroke="#000000" stroke-width="3" stroke-miterlimit="10" d="
		M206.568,454.106c-18.041-1.814-36.083-3.605-54.121-5.447c-28.305-2.889-56.598-5.896-84.918-8.625
		c-4.092-0.394-5.865-1.424-4.385-5.635c0.272-0.773,0.275-1.637,0.475-2.441c7.134-28.794,34.478-48.3,63.01-50.965
		c2.512-0.234,3.988,1.001,5.604,2.508c12.907,12.044,25.86,24.04,38.782,36.069c12.022,11.192,24.025,22.407,36.036,33.611
		C206.891,453.489,206.729,453.798,206.568,454.106z M117.041,410.734c0.053-7.831-6.026-13.918-13.807-13.825
		c-8.518,0.101-15.999,7.911-15.866,16.563c0.118,7.668,6.021,13.581,13.559,13.581
		C109.477,427.055,116.983,419.452,117.041,410.734z M152.952,432.907c6.022,0.244,11.878-5.409,12.04-11.625
		c0.139-5.308-4.251-10.011-9.539-10.22c-6.043-0.238-11.875,5.389-12.041,11.618C143.271,427.977,147.67,432.692,152.952,432.907z"
		/>
	<path fill-rule="evenodd" clip-rule="evenodd" fill="#050305" d="M111.729,450.982c9.031-0.2,16.379,6.839,16.473,15.78
		c0.091,8.805-6.82,16.028-15.523,16.223c-9.031,0.202-16.377-6.834-16.473-15.775C96.112,458.408,103.031,451.176,111.729,450.982z
		 M120.777,475.213c4.975-5.156,4.497-12.018-1.199-17.251c-5.485-4.047-11.109-3.889-15.605,0.439
		c-4.649,4.477-4.941,10.334-0.797,15.958C108.537,480.191,115.642,480.536,120.777,475.213z"/>
	<path fill-rule="evenodd" clip-rule="evenodd" fill="#050305" d="M74.209,490.875c0.053-5.394,4.35-9.757,9.733-9.882
		c5.609-0.13,10.186,4.268,10.255,9.856c0.07,5.603-4.385,10.126-9.981,10.134C78.617,500.991,74.152,496.482,74.209,490.875z
		 M88.322,495.106c2.473-2.475,2.881-5.394-0.051-8.061c-2.664-2.999-5.621-2.732-8.18-0.172c-2.557,2.559-2.826,5.516,0.169,8.182
		C82.929,497.977,85.848,497.581,88.322,495.106z"/>
	<path fill-rule="evenodd" clip-rule="evenodd" fill="#050305" d="M164.479,510.983c-5.602,0.141-10.191-4.259-10.27-9.846
		c-0.076-5.408,4.107-9.889,9.471-10.141c5.609-0.265,10.317,4.027,10.519,9.59C174.4,506.187,170.048,510.843,164.479,510.983z
		 M168.322,505.106c2.473-2.475,2.881-5.394-0.051-8.061c-2.664-2.999-5.621-2.732-8.18-0.172c-2.557,2.559-2.826,5.516,0.169,8.182
		C162.929,507.977,165.848,507.581,168.322,505.106z"/>
	<path fill-rule="evenodd" clip-rule="evenodd" fill="#050305" d="M87.368,413.473c-0.133-8.652,7.349-16.463,15.866-16.563
		c7.78-0.093,13.859,5.994,13.807,13.825c-0.058,8.718-7.564,16.32-16.114,16.319C93.389,427.054,87.486,421.141,87.368,413.473z
		 M102.643,422.863c4.771-0.786,8.066-3.81,9.498-8.432c1.348-4.352,1.111-8.49-3.125-11.418c-4.709-2.963-8.893-2.699-12.992,0.817
		c-4.388,3.763-5.418,9.054-2.834,14.558C95.065,422.567,98.679,423.517,102.643,422.863z"/>
	<path fill-rule="evenodd" clip-rule="evenodd" fill="#050305" d="M155.453,411.063c5.288,0.209,9.678,4.912,9.539,10.22
		c-0.162,6.216-6.018,11.869-12.04,11.625c-5.282-0.215-9.682-4.931-9.54-10.227C143.578,416.451,149.41,410.824,155.453,411.063z
		 M150.133,417.501c-2.642,2.578-3.856,5.745-0.947,9.113c2.956,3.418,6.174,2.58,8.899,0.016c3.006-2.829,4.153-6.24,0.702-9.753
		C155.674,413.839,152.626,415.066,150.133,417.501z"/>
	<path fill-rule="evenodd" clip-rule="evenodd" fill="#D38034" d="M103.176,474.359c5.361,5.832,12.466,6.177,17.602,0.854
		c4.975-5.156,4.497-12.018-1.201-17.251C106.871,455.37,100.586,461.654,103.176,474.359z"/>
	<path fill-rule="evenodd" clip-rule="evenodd" fill="#E9BE30" d="M103.176,474.359c-2.59-12.705,3.695-18.989,16.4-16.397
		c-5.483-4.047-11.107-3.889-15.604,0.439C99.323,462.878,99.031,468.735,103.176,474.359z"/>
	<path fill-rule="evenodd" clip-rule="evenodd" fill="#D38034" d="M80.261,495.056c2.668,2.921,5.587,2.525,8.062,0.051
		c2.473-2.475,2.881-5.394-0.052-8.061C81.974,487.464,80.678,488.761,80.261,495.056z"/>
	<path fill-rule="evenodd" clip-rule="evenodd" fill="#E9BE30" d="M80.261,495.056c0.417-6.295,1.713-7.592,8.01-8.01
		c-2.663-2.999-5.62-2.732-8.179-0.172C77.535,489.433,77.266,492.39,80.261,495.056z"/>
	<path fill-rule="evenodd" clip-rule="evenodd" fill="#D38034" d="M160.261,505.056c2.668,2.921,5.587,2.525,8.062,0.051
		c2.473-2.475,2.881-5.394-0.052-8.061C161.974,497.464,160.678,498.761,160.261,505.056z"/>
	<path fill-rule="evenodd" clip-rule="evenodd" fill="#E9BE30" d="M160.261,505.056c0.417-6.295,1.713-7.592,8.01-8.01
		c-2.663-2.999-5.62-2.732-8.179-0.172C157.535,499.433,157.266,502.39,160.261,505.056z"/>
	<path fill-rule="evenodd" clip-rule="evenodd" fill="#D38034" d="M93.189,418.389c1.876,4.179,5.489,5.128,9.453,4.475
		c4.771-0.786,8.066-3.81,9.498-8.432c1.348-4.352,1.111-8.49-3.125-11.418c-5.643-0.676-10.798-0.242-14.107,5.384
		C93.042,411.567,93.125,414.951,93.189,418.389z"/>
	<path fill-rule="evenodd" clip-rule="evenodd" fill="#E9BE30" d="M93.189,418.389c-0.064-3.438-0.147-6.821,1.719-9.991
		c3.31-5.626,8.465-6.06,14.107-5.384c-4.709-2.963-8.893-2.699-12.992,0.817C91.636,407.594,90.605,412.885,93.189,418.389z"/>
	<path fill-rule="evenodd" clip-rule="evenodd" fill="#D38034" d="M149.186,426.614c2.956,3.418,6.174,2.58,8.899,0.016
		c3.006-2.829,4.153-6.24,0.702-9.752C151.329,417.121,149.29,419.188,149.186,426.614z"/>
	<path fill-rule="evenodd" clip-rule="evenodd" fill="#E9BE30" d="M149.186,426.614c0.104-7.426,2.144-9.493,9.602-9.736
		c-3.113-3.039-6.161-1.812-8.654,0.623C147.491,420.079,146.276,423.246,149.186,426.614z"/>
</g>
</svg>
