<?xml version="1.0" encoding="utf-8"?>
<!-- Generator: Adobe Illustrator 16.0.0, SVG Export Plug-In . SVG Version: 6.00 Build 0)  -->
<!DOCTYPE svg PUBLIC "-//W3C//DTD SVG 1.1//EN" "http://www.w3.org/Graphics/SVG/1.1/DTD/svg11.dtd">
<svg version="1.1" id="Capa_1" xmlns="http://www.w3.org/2000/svg" xmlns:xlink="http://www.w3.org/1999/xlink" x="0px" y="0px"
	 width="612px" height="564.781px" viewBox="0 0 612 564.781" enable-background="new 0 0 612 564.781" xml:space="preserve">
<path fill-rule="evenodd" clip-rule="evenodd" d="M495.593,79.165c-23.139-23.313-51.889-32.457-84.113-28.525
	c-41.793,5.1-70.234,28.099-84.842,67.715c-1.831,4.958-2.88,10.297-3.567,15.552c-0.566,4.337,2.002,7.369,5.724,8.275
	c3.23,0.789,6.039-0.812,7.887-5.078c1.387-3.202,2.248-6.63,3.342-9.961c4.895-14.913,12.129-28.485,23.637-39.362
	c21.389-20.217,47.406-25.479,75.588-21.966c18.229,2.271,33.332,11.388,46.191,24.325c28.068,28.242,30.051,66.907,13.742,97.125
	c-17.391,32.226-53.115,49.184-89.225,43.348c-14.541-2.352-25.707-8.499-32.732-22.159c-5.744-11.164-13.553-21.092-22.791-29.751
	c-12.988-12.174-28.201-19.277-46.146-19.92c-5.576-0.198-11.164-0.031-17.041-0.031c-0.055-0.294-0.205-0.864-0.262-1.443
	c-0.386-4.162-0.828-8.322-1.117-12.492c-1.667-23.92-10.016-45.21-26.28-62.839c-24.091-26.114-54.792-34.761-89.266-31.268
	c-23.71,2.404-43.583,13.144-60.026,30.35c-27.216,28.476-34.938,71.411-18.142,106.886c15.609,32.967,42.062,52.249,78.109,58.067
	c4.829,0.779,9.844,0.739,14.752,0.563c4.33-0.158,6.599-2.988,6.884-7.491c0.219-3.501-1.525-5.477-5.862-6.564
	c-0.885-0.221-1.803-0.353-2.714-0.443c-3.327-0.332-6.672-0.508-9.982-0.958c-19.119-2.592-36.009-9.987-49.794-23.72
	c-27.208-27.112-32.266-64.367-15.752-96.718c23.703-46.441,77.989-57.283,117.711-36.226
	c28.711,15.221,43.644,39.807,45.923,72.052c0.949,13.413-4.37,23.694-16.549,30.161c-2.14,1.137-4.056,2.98-5.613,4.878
	c-14.818,18.079-27.256,37.634-35.998,59.388c-8.603,21.398-14.545,43.418-14.396,66.71c0.127,20.148,7.338,37.285,22.757,50.451
	c8.002,6.834,16.577,13.003,24.984,19.351c1.293,0.977,3.084,1.292,4.643,1.916c0.438,0.174,1.038,0.219,1.281,0.539
	c2.599,3.393,1.551,9.142-2.06,11.571c-0.417,0.278-0.864,0.527-1.229,0.862c-11.555,10.604-20.429,22.947-24.749,38.231
	c-4.622,16.351-3.165,32.497,2.074,48.379c9.858,29.881,30.388,47.146,61.636,51.55c12.32,1.735,24.683,1.809,37.047,0.891
	c13.17-0.978,26.379-1.844,39.256-5.046c28.582-7.112,48.611-24.224,60.012-51.437c8.754-20.895,9.906-42.241,4.25-64.083
	c-2.291-8.845-2.945-17.826-1.205-26.844c1.928-10.006,7.012-18.27,14.197-25.438c1.771-1.772,2.855-4.414,3.74-6.841
	c0.764-2.103-0.461-4.057-2.641-4.332c-3.445-0.433-6.961-0.363-10.441-0.351c-0.613,0.002-1.34,0.655-1.816,1.185
	c-6.342,7.077-11.895,14.663-15.313,23.646c-5.484,14.425-4.977,29.026-1.127,43.64c2.904,11.025,4.484,22.112,3.082,33.495
	c-3.795,30.73-25.406,55.223-55.654,62.314c-21.875,5.127-44.212,5.822-66.586,5.391c-2.819-0.054-5.668-0.529-8.438-1.113
	c-31.368-6.608-55.919-42.25-47.658-76.216c7.837-32.229,38.712-57.203,73.331-50.526c15.397,2.967,28.911,9.497,39.249,21.525
	c13.834,16.099,17.422,34.931,13.881,55.433c-0.783,4.521-2.041,8.956-2.859,13.472c-0.451,2.505,0.137,4.871,2.566,6.313
	c4.494,2.67,8.189,1.693,10.734-2.902c0.762-1.377,1.428-2.852,1.873-4.36c9.73-32.89,2.328-61.372-22.145-85.375
	c-3.854-3.78-8.004-7.258-12.193-11.032c0.994-0.454,1.748-0.786,2.492-1.14c6.859-3.261,13.945-6.125,20.539-9.859
	c25.52-14.465,38.195-36.523,38.191-65.888c-0.006-16.19-3.094-31.911-7.008-47.515c-0.799-3.188-1.619-6.374-2.482-9.768
	c5.795-0.328,11.223-0.561,16.635-0.956c9.914-0.725,19.939-0.836,29.707-2.47c20.58-3.444,37.699-13.721,51.824-28.918
	c16.512-17.771,26.365-38.717,27.35-63.068C525.753,123.836,515.532,99.254,495.593,79.165z"/>
<path fill-rule="evenodd" clip-rule="evenodd" fill="#FFFFFF" d="M393.218,293.219c-3.787-28.28-13.383-54.446-29.094-78.283
	c-6.676-10.128-13.584-20.146-23.029-28.005c-10.627-8.845-22.866-13.453-36.754-12.967c-16.689,0.583-30.325,7.873-40.993,20.384
	c-26.427,30.992-42.175,66.75-45.285,107.458c-2.042,26.722,10.997,50.319,38.182,59.602c12.867,4.393,62.439,7.061,63.824,6.964
	c0.264-0.123,0.527-0.24,0.791-0.372c-0.264,0.132-0.527,0.249-0.791,0.372c12.442-0.867,24.417-2.326,35.872-6.79
	c15.752-6.138,27.754-16.238,34.078-32.285C394.628,317.603,394.856,305.466,393.218,293.219z"/>
<g>
	<path fill-rule="evenodd" clip-rule="evenodd" stroke="#FFFFFF" stroke-miterlimit="10" d="M298.227,291.201
		c-0.354,11.986-11.828,19.115-20.287,13.104c-7.383-5.246-12.137-4.243-19.418-0.054c-3.666,2.109-12.85,0.447-15.357-2.769
		c-2.955-3.79-3.762-12.485-1.356-16.661c10.143-17.596,43.209-16.987,53.987,0.32C297.208,287.411,297.825,290.17,298.227,291.201z
		"/>
	<path fill-rule="evenodd" clip-rule="evenodd" stroke="#FFFFFF" stroke-miterlimit="10" d="M369.755,290.375
		c0.348,12.16-10.604,20.167-19.014,14.293c-8.055-5.627-13.225-5.024-21.068,0.019c-3.236,2.079-12.341-0.294-15.224-3.675
		c-2.813-3.293-3.262-11.694-0.982-15.71c10.006-17.589,42.548-17.803,53.833-0.954
		C368.771,286.547,369.351,289.344,369.755,290.375z"/>
</g>
<rect x="113.666" y="78.05" fill-rule="evenodd" clip-rule="evenodd" fill="none" width="262.827" height="224.246"/>
<text transform="matrix(1 0 0 1 113.666 210.2778)" stroke="#000000" stroke-width="2" stroke-linecap="round" stroke-miterlimit="10" font-family="'Monospace'" font-size="209.2251">C</text>
<g>
	<rect x="234.975" y="78.05" fill="none" width="262.831" height="224.246"/>
	
		<text transform="matrix(-1 0 0 1 497.8037 210.2778)" stroke="#000000" stroke-width="2" stroke-linecap="round" stroke-miterlimit="10" font-family="'Monospace'" font-size="209.2251">C</text>
</g>
<path fill-rule="evenodd" clip-rule="evenodd" d="M290.243,352.573c-2.658-1.958-4.751-4.22-6.297-6.856
	c-1.209-2.063-3.221-8.663-2.272-9.213c1.004-0.583,2.333-1.399,3.619-2.004c4.961-2.333,4.356-1.726,8.708-2.875
	c3.333-0.88,6.583-2.214,15.75-1.713c3.156,0.172,13.297,0.251,14.429,1.753c0.505,0.67,0.78,1.656,0.746,2.49
	c-0.14,3.551-0.816,7.03-2.323,10.343c-0.355,0.784-0.787,1.539-1.203,2.346c-3.432-1.756-6.905-2.125-10.398-0.497
	c-1.367,0.636-2.607,1.61-3.721,2.609c-1.586,1.425-1.958,1.556-3.82,0.618c-2.479-1.25-5.116-1.721-7.944-1.244
	C292.932,348.765,291.393,350.342,290.243,352.573z"/>
<path fill-rule="evenodd" clip-rule="evenodd" fill="#8C2621" stroke="#FFFFFF" stroke-miterlimit="10" d="M290.253,352.898
	c1.331-3.945,3.969-5.206,7.206-5.072c2.018,0.083,3.993,0.586,5.879,1.768c1.499,0.941,2.711,0.571,3.95-0.893
	c3.587-4.244,9.521-4.906,13.983-1.815c-2.429,5.809-6.443,9.07-11.427,10.6C302.953,359.6,296.383,358.185,290.253,352.898z"/>
</svg>
