<?xml version="1.0" encoding="utf-8"?>
<!-- Generator: Adobe Illustrator 16.0.0, SVG Export Plug-In . SVG Version: 6.00 Build 0)  -->
<!DOCTYPE svg PUBLIC "-//W3C//DTD SVG 1.1//EN" "http://www.w3.org/Graphics/SVG/1.1/DTD/svg11.dtd">
<svg version="1.1" id="Capa_1" xmlns="http://www.w3.org/2000/svg" xmlns:xlink="http://www.w3.org/1999/xlink" x="0px" y="0px"
	 width="612px" height="564.781px" viewBox="0 0 612 564.781" enable-background="new 0 0 612 564.781" xml:space="preserve">
<path d="M495.593,79.165c-23.14-23.313-51.89-32.457-84.113-28.525c-41.793,5.1-70.234,28.099-84.842,67.715
	c-1.831,4.958-2.88,10.297-3.567,15.552c-0.565,4.337,2.002,7.369,5.725,8.275c3.229,0.789,6.039-0.812,7.887-5.078
	c1.387-3.202,2.248-6.63,3.342-9.961c4.896-14.913,12.129-28.485,23.637-39.362c21.39-20.217,47.406-25.479,75.588-21.966
	c18.229,2.271,33.332,11.388,46.191,24.325c28.068,28.242,30.051,66.907,13.742,97.125c-17.392,32.226-53.115,49.184-89.226,43.348
	c-14.541-2.352-25.707-8.499-32.731-22.159c-5.744-11.164-13.553-21.092-22.791-29.751c-12.988-12.174-28.201-19.277-46.146-19.92
	c-5.575-0.198-11.163-0.031-17.04-0.031c-0.056-0.294-0.205-0.864-0.263-1.443c-0.386-4.162-0.828-8.322-1.116-12.492
	c-1.667-23.92-10.017-45.21-26.28-62.839c-24.091-26.114-54.792-34.761-89.267-31.268c-23.71,2.404-43.583,13.144-60.025,30.35
	c-27.216,28.476-34.938,71.411-18.143,106.886c15.609,32.967,42.063,52.249,78.109,58.067c4.829,0.779,9.844,0.739,14.752,0.563
	c4.33-0.158,6.599-2.988,6.884-7.491c0.22-3.501-1.524-5.477-5.861-6.564c-0.886-0.221-1.804-0.353-2.715-0.443
	c-3.326-0.332-6.672-0.508-9.981-0.958c-19.119-2.592-36.009-9.987-49.794-23.72c-27.208-27.112-32.267-64.367-15.752-96.718
	c23.703-46.441,77.989-57.283,117.711-36.226c28.711,15.221,43.644,39.807,45.923,72.052c0.949,13.413-4.37,23.694-16.549,30.161
	c-2.141,1.137-4.057,2.98-5.613,4.878c-14.818,18.079-27.256,37.634-35.998,59.388c-8.603,21.398-14.545,43.418-14.396,66.709
	c0.127,20.148,7.338,37.285,22.757,50.451c8.002,6.834,16.577,13.004,24.983,19.352c1.293,0.977,3.084,1.292,4.644,1.916
	c0.438,0.174,1.038,0.219,1.281,0.539c2.599,3.393,1.551,9.142-2.061,11.57c-0.417,0.278-0.864,0.527-1.229,0.862
	c-11.556,10.604-20.43,22.947-24.749,38.231c-4.622,16.351-3.165,32.496,2.073,48.379c9.858,29.881,30.389,47.146,61.637,51.55
	c12.319,1.735,24.683,1.809,37.047,0.891c13.17-0.978,26.379-1.844,39.256-5.046c28.582-7.112,48.61-24.224,60.012-51.437
	c8.754-20.896,9.906-42.241,4.25-64.083c-2.291-8.846-2.945-17.826-1.205-26.844c1.928-10.007,7.012-18.271,14.197-25.438
	c1.771-1.772,2.854-4.414,3.74-6.841c0.764-2.104-0.461-4.057-2.642-4.332c-3.444-0.434-6.961-0.363-10.44-0.352
	c-0.613,0.002-1.341,0.655-1.816,1.186c-6.342,7.076-11.895,14.662-15.313,23.646c-5.484,14.425-4.978,29.026-1.128,43.64
	c2.904,11.025,4.484,22.112,3.082,33.495c-3.795,30.73-25.405,55.224-55.653,62.314c-21.875,5.127-44.212,5.822-66.586,5.391
	c-2.819-0.054-5.668-0.528-8.438-1.112c-31.367-6.608-55.919-42.25-47.657-76.217c7.837-32.229,38.712-57.203,73.33-50.525
	c15.397,2.967,28.911,9.497,39.249,21.525c13.834,16.099,17.422,34.931,13.881,55.433c-0.782,4.521-2.04,8.956-2.858,13.472
	c-0.451,2.505,0.137,4.871,2.565,6.313c4.494,2.67,8.189,1.692,10.734-2.902c0.762-1.377,1.428-2.852,1.873-4.36
	c9.73-32.89,2.328-61.371-22.145-85.375c-3.854-3.779-8.005-7.258-12.193-11.031c0.994-0.454,1.748-0.786,2.492-1.141
	c6.858-3.261,13.944-6.125,20.539-9.859c25.52-14.465,38.194-36.522,38.19-65.887c-0.006-16.19-3.094-31.912-7.008-47.516
	c-0.799-3.188-1.619-6.374-2.481-9.768c5.795-0.328,11.223-0.561,16.635-0.956c9.914-0.725,19.938-0.836,29.707-2.47
	c20.58-3.444,37.699-13.721,51.824-28.918c16.512-17.771,26.364-38.717,27.35-63.068C525.753,123.836,515.531,99.254,495.593,79.165
	z"/>
<path fill="#FFFFFF" d="M393.218,293.219c-3.787-28.28-13.383-54.446-29.095-78.283c-6.676-10.128-13.584-20.146-23.028-28.005
	c-10.627-8.845-22.866-13.453-36.754-12.967c-16.689,0.583-30.325,7.873-40.993,20.384c-26.427,30.992-42.175,66.75-45.285,107.458
	c-2.042,26.721,10.997,50.318,38.183,59.602c12.866,4.393,62.438,7.061,63.823,6.964c0.264-0.123,0.527-0.24,0.791-0.372
	c-0.264,0.132-0.527,0.249-0.791,0.372c12.442-0.867,24.417-2.326,35.872-6.79c15.752-6.139,27.754-16.238,34.078-32.285
	C394.628,317.604,394.856,305.466,393.218,293.219z"/>
<g>
	<path stroke="#FFFFFF" stroke-miterlimit="10" d="M298.227,291.201c-0.354,11.986-11.828,19.115-20.287,13.104
		c-7.383-5.246-12.137-4.242-19.418-0.054c-3.666,2.108-12.85,0.447-15.356-2.769c-2.955-3.791-3.763-12.485-1.356-16.662
		c10.144-17.595,43.209-16.986,53.987,0.32C297.208,287.411,297.824,290.17,298.227,291.201z"/>
	<path stroke="#FFFFFF" stroke-miterlimit="10" d="M369.755,290.375c0.348,12.16-10.604,20.167-19.015,14.293
		c-8.055-5.627-13.225-5.023-21.067,0.02c-3.236,2.078-12.342-0.295-15.225-3.676c-2.813-3.293-3.262-11.693-0.981-15.71
		c10.006-17.589,42.548-17.803,53.833-0.954C368.771,286.547,369.351,289.344,369.755,290.375z"/>
</g>
<rect x="113.666" y="78.05" fill="none" width="262.826" height="224.246"/>
<g>
	<rect x="234.975" y="78.05" fill="none" width="262.831" height="224.246"/>
</g>
<path d="M290.243,352.573c-2.658-1.958-4.751-4.22-6.298-6.856c-1.209-2.063-3.221-8.662-2.271-9.213
	c1.004-0.583,2.333-1.398,3.619-2.004c4.961-2.333,4.355-1.727,8.708-2.875c3.333-0.88,6.583-2.214,15.75-1.713
	c3.155,0.172,13.297,0.251,14.429,1.753c0.505,0.67,0.78,1.655,0.746,2.489c-0.141,3.552-0.816,7.031-2.323,10.344
	c-0.355,0.784-0.787,1.539-1.203,2.346c-3.432-1.756-6.905-2.125-10.397-0.497c-1.367,0.636-2.607,1.61-3.722,2.609
	c-1.586,1.425-1.958,1.556-3.819,0.618c-2.479-1.25-5.116-1.721-7.944-1.244C292.932,348.766,291.393,350.342,290.243,352.573z"/>
<path fill="#8C2621" stroke="#FFFFFF" stroke-miterlimit="10" d="M290.253,352.898c1.331-3.945,3.969-5.207,7.206-5.072
	c2.018,0.083,3.992,0.586,5.879,1.768c1.499,0.941,2.711,0.571,3.949-0.893c3.588-4.244,9.521-4.906,13.983-1.815
	c-2.429,5.81-6.443,9.07-11.427,10.601C302.952,359.6,296.383,358.186,290.253,352.898z"/>
<rect x="111.109" y="83.927" fill-rule="evenodd" clip-rule="evenodd" fill="none" width="262.826" height="224.246"/>
<text transform="matrix(1 0 0 1 111.1086 197.6846)" fill="#211915" stroke="#211915" stroke-width="2" stroke-linecap="round" stroke-miterlimit="10" font-family="'Monospace'" font-size="180">C</text>
<g>
	<rect x="232.417" y="83.927" fill="none" width="262.83" height="224.246"/>
	
		<text transform="matrix(-1 0 0 1 495.2463 197.6846)" fill="#211915" stroke="#211915" stroke-width="2" stroke-linecap="round" stroke-miterlimit="10" font-family="'Monospace'" font-size="180">C</text>
</g>
</svg>
