<?xml version="1.0" encoding="utf-8"?>
<!-- Generator: Adobe Illustrator 16.0.0, SVG Export Plug-In . SVG Version: 6.00 Build 0)  -->
<!DOCTYPE svg PUBLIC "-//W3C//DTD SVG 1.1//EN" "http://www.w3.org/Graphics/SVG/1.1/DTD/svg11.dtd">
<svg version="1.1" id="Capa_1" xmlns="http://www.w3.org/2000/svg" xmlns:xlink="http://www.w3.org/1999/xlink" x="0px" y="0px"
	 width="612px" height="564.781px" viewBox="0 0 612 564.781" enable-background="new 0 0 612 564.781" xml:space="preserve">
<g>
	<path fill-rule="evenodd" clip-rule="evenodd" d="M289.361,159.503c5.876,0,11.465-0.167,17.041,0.031
		c17.944,0.643,33.156,7.746,46.145,19.92c9.238,8.659,17.048,18.587,22.792,29.751c7.025,13.66,18.19,19.807,32.732,22.159
		c36.108,5.836,71.833-11.122,89.225-43.348c16.308-30.218,14.326-68.883-13.742-97.125c-12.859-12.937-27.963-22.053-46.192-24.325
		c-28.181-3.513-54.198,1.749-75.588,21.966c-11.508,10.877-18.742,24.449-23.637,39.362c-1.093,3.331-1.954,6.759-3.341,9.961
		c-1.849,4.266-4.657,5.867-7.888,5.078c-3.72-0.906-6.288-3.938-5.723-8.275c0.688-5.255,1.737-10.594,3.566-15.552
		C339.359,79.489,367.8,56.49,409.594,51.39c32.224-3.932,60.975,5.212,84.112,28.525c19.939,20.089,30.161,44.671,29.008,73.156
		c-0.983,24.351-10.837,45.297-27.35,63.068c-14.124,15.197-31.244,25.474-51.823,28.918c-9.769,1.634-19.793,1.745-29.707,2.47
		c-5.413,0.396-10.84,0.628-16.636,0.956c0.864,3.395,1.684,6.58,2.483,9.768c3.913,15.604,7.002,31.324,7.007,47.515
		c0.005,29.365-12.671,51.423-38.191,65.888c-6.593,3.734-13.679,6.599-20.539,9.859c-0.744,0.354-1.498,0.686-2.491,1.14
		c4.188,3.774,8.339,7.252,12.193,11.032c24.473,24.003,31.875,52.485,22.145,85.375c-0.445,1.509-1.111,2.983-1.874,4.36
		c-2.545,4.596-6.239,5.572-10.733,2.902c-2.43-1.442-3.019-3.809-2.566-6.313c0.817-4.516,2.076-8.951,2.858-13.472
		c3.541-20.502-0.047-39.334-13.881-55.433c-10.338-12.028-23.852-18.559-39.247-21.525c-34.62-6.677-65.495,18.298-73.332,50.526
		c-8.262,33.966,16.29,69.607,47.658,76.216c2.769,0.584,5.618,1.06,8.438,1.113c22.374,0.432,44.711-0.264,66.585-5.391
		c30.249-7.092,51.859-31.584,55.654-62.314c1.403-11.383-0.177-22.47-3.082-33.495c-3.85-14.613-4.357-29.215,1.128-43.64
		c3.418-8.984,8.97-16.569,15.313-23.646c0.476-0.53,1.203-1.182,1.815-1.185c3.481-0.012,6.997-0.082,10.441,0.351
		c2.18,0.275,3.404,2.229,2.642,4.332c-0.886,2.427-1.969,5.069-3.741,6.841c-7.186,7.169-12.269,15.433-14.196,25.438
		c-1.74,9.018-1.086,17.999,1.205,26.844c5.655,21.842,4.504,43.188-4.25,64.083c-11.401,27.213-31.43,44.324-60.012,51.437
		c-12.878,3.202-26.086,4.068-39.256,5.046c-12.364,0.918-24.728,0.845-37.047-0.891c-31.249-4.404-51.778-21.669-61.636-51.55
		c-5.238-15.882-6.695-32.028-2.074-48.379c4.32-15.284,13.193-27.628,24.749-38.231c0.365-0.335,0.812-0.584,1.229-0.862
		c3.611-2.43,4.659-8.179,2.06-11.571c-0.243-0.32-0.843-0.365-1.281-0.539c-1.559-0.624-3.35-0.939-4.643-1.916
		c-8.407-6.348-16.981-12.516-24.984-19.351c-15.418-13.166-22.63-30.303-22.757-50.451c-0.148-23.292,5.794-45.312,14.396-66.71
		c8.742-21.754,21.18-41.309,35.998-59.388c1.557-1.897,3.473-3.741,5.613-4.878c12.179-6.467,17.498-16.749,16.549-30.161
		c-2.279-32.245-17.212-56.831-45.923-72.052c-39.722-21.057-94.008-10.215-117.711,36.226
		c-16.513,32.351-11.456,69.605,15.752,96.718c13.785,13.733,30.675,21.127,49.794,23.72c3.311,0.45,6.656,0.626,9.982,0.958
		c0.911,0.09,1.829,0.222,2.714,0.443c4.337,1.087,6.082,3.063,5.862,6.564c-0.285,4.503-2.554,7.333-6.884,7.491
		c-4.909,0.177-9.923,0.217-14.752-0.563c-36.047-5.818-62.5-25.1-78.109-58.067c-16.796-35.475-9.074-78.411,18.142-106.886
		c16.442-17.206,36.315-27.946,60.026-30.35c34.474-3.494,65.175,5.153,89.266,31.268c16.264,17.629,24.612,38.919,26.279,62.839
		c0.29,4.169,0.732,8.33,1.118,12.492C289.156,158.639,289.307,159.208,289.361,159.503z M313.916,368.645
		c13.942-0.85,27.311-2.103,40.04-7.063c15.751-6.138,27.753-16.238,34.077-32.285c4.609-11.694,4.838-23.83,3.199-36.078
		c-3.786-28.28-13.382-54.446-29.093-78.283c-6.677-10.128-13.584-20.146-23.029-28.005c-10.628-8.845-22.865-13.453-36.754-12.967
		c-16.689,0.583-30.326,7.873-40.993,20.384c-26.427,30.992-42.175,66.75-45.285,107.458c-2.042,26.722,10.997,50.319,38.182,59.602
		c12.867,4.393,26.112,7.673,39.188,11.444c0.087,0.026,0.235-0.172,0.407-0.304c-1.54-4.221-3.324-8.386-4.567-12.706
		c-1.61-5.597-3.101-11.261-4.047-16.996c-0.789-4.786,1.302-8.763,5.203-11.783c6.646-5.149,14.008-5.589,21.625-3.077
		c8.414,2.773,12.732,10.63,10.653,19.258c-0.893,3.708-2.328,7.31-3.788,10.849C317.505,361.548,315.734,364.861,313.916,368.645z"
		/>
	<path fill-rule="evenodd" clip-rule="evenodd" fill="#FFFFFF" d="M313.916,368.645c1.818-3.784,3.589-7.096,5.018-10.552
		c1.46-3.539,2.896-7.141,3.788-10.849c2.079-8.628-2.239-16.485-10.653-19.258c-7.616-2.512-14.979-2.072-21.625,3.077
		c-3.901,3.021-5.992,6.997-5.203,11.783c0.947,5.735,2.437,11.399,4.047,16.996c1.243,4.32,3.027,8.485,4.567,12.706
		c-0.172,0.132-0.32,0.33-0.407,0.304c-13.076-3.771-26.321-7.051-39.188-11.444c-27.185-9.283-40.224-32.88-38.182-59.602
		c3.11-40.708,18.858-76.466,45.285-107.458c10.667-12.511,24.304-19.8,40.993-20.384c13.889-0.485,26.126,4.122,36.754,12.967
		c9.445,7.859,16.353,17.876,23.029,28.005c15.711,23.837,25.307,50.003,29.093,78.283c1.639,12.248,1.41,24.384-3.199,36.078
		c-6.324,16.047-18.326,26.147-34.077,32.285C341.227,366.542,327.858,367.794,313.916,368.645z"/>
	<g>
		<path fill-rule="evenodd" clip-rule="evenodd" stroke="#FFFFFF" stroke-miterlimit="10" d="M297.22,291.201
			c-0.354,11.986-11.828,19.115-20.287,13.104c-7.383-5.246-12.137-4.243-19.418-0.054c-3.666,2.109-12.85,0.447-15.357-2.769
			c-2.955-3.79-3.762-12.485-1.356-16.661c10.143-17.596,43.209-16.987,53.987,0.32C296.2,287.411,296.817,290.17,297.22,291.201z"
			/>
		<path fill-rule="evenodd" clip-rule="evenodd" stroke="#FFFFFF" stroke-miterlimit="10" d="M368.746,290.375
			c0.349,12.16-10.604,20.167-19.014,14.293c-8.054-5.627-13.224-5.024-21.068,0.019c-3.235,2.079-12.339-0.294-15.223-3.675
			c-2.812-3.293-3.261-11.694-0.982-15.71c10.006-17.589,42.548-17.803,53.832-0.954
			C367.762,286.547,368.342,289.344,368.746,290.375z"/>
	</g>
	<rect x="112.658" y="78.05" fill-rule="evenodd" clip-rule="evenodd" fill="none" width="262.826" height="224.246"/>
	
		<text transform="matrix(1 0 0 1 112.6582 210.2778)" stroke="#000000" stroke-width="2" stroke-linecap="round" stroke-miterlimit="10" font-family="'Monospace'" font-size="209.2251">C</text>
	<g>
		<rect x="233.967" y="78.05" fill="none" width="262.83" height="224.246"/>
		
			<text transform="matrix(-1 0 0 1 496.7959 210.2778)" stroke="#000000" stroke-width="2" stroke-linecap="round" stroke-miterlimit="10" font-family="'Monospace'" font-size="209.2251">C</text>
	</g>
</g>
</svg>
