<?xml version="1.0" encoding="utf-8"?>
<!-- Generator: Adobe Illustrator 16.0.0, SVG Export Plug-In . SVG Version: 6.00 Build 0)  -->
<!DOCTYPE svg PUBLIC "-//W3C//DTD SVG 1.1//EN" "http://www.w3.org/Graphics/SVG/1.1/DTD/svg11.dtd">
<svg version="1.1" id="Capa_1" xmlns="http://www.w3.org/2000/svg" xmlns:xlink="http://www.w3.org/1999/xlink" x="0px" y="0px"
	 width="612px" height="564.781px" viewBox="0 0 612 564.781" enable-background="new 0 0 612 564.781" xml:space="preserve">
<path d="M495.593,79.165c-23.14-23.313-51.89-32.457-84.113-28.525c-41.793,5.1-70.234,28.099-84.842,67.715
	c-1.831,4.958-2.88,10.297-3.567,15.552c-0.565,4.337,2.002,7.369,5.725,8.275c3.229,0.789,6.039-0.812,7.887-5.078
	c1.387-3.202,2.248-6.63,3.342-9.961c4.896-14.913,12.129-28.485,23.637-39.362c21.39-20.217,47.406-25.479,75.588-21.966
	c18.229,2.271,33.332,11.388,46.191,24.325c28.068,28.242,30.051,66.907,13.742,97.125c-17.392,32.226-53.115,49.184-89.226,43.348
	c-14.541-2.352-25.707-8.499-32.731-22.159c-5.744-11.164-13.553-21.092-22.791-29.751c-12.988-12.174-28.201-19.277-46.146-19.92
	c-5.575-0.198-11.163-0.031-17.04-0.031c-0.056-0.294-0.205-0.864-0.263-1.443c-0.386-4.162-0.828-8.322-1.116-12.492
	c-1.667-23.92-10.017-45.21-26.28-62.839c-24.091-26.114-54.792-34.761-89.267-31.268c-23.71,2.404-43.583,13.144-60.025,30.35
	c-27.216,28.476-34.938,71.411-18.143,106.886c15.609,32.967,42.063,52.249,78.109,58.067c4.829,0.779,9.844,0.739,14.752,0.563
	c4.33-0.158,6.599-2.988,6.884-7.491c0.22-3.501-1.524-5.477-5.861-6.564c-0.886-0.221-1.804-0.353-2.715-0.443
	c-3.326-0.332-6.672-0.508-9.981-0.958c-19.119-2.592-36.009-9.987-49.794-23.72c-27.208-27.112-32.267-64.367-15.752-96.718
	c23.703-46.441,77.989-57.283,117.711-36.226c28.711,15.221,43.644,39.807,45.923,72.052c0.949,13.413-4.37,23.694-16.549,30.161
	c-2.141,1.137-4.057,2.98-5.613,4.878c-14.818,18.079-27.256,37.634-35.998,59.388c-8.603,21.398-14.545,43.418-14.396,66.709
	c0.127,20.148,7.338,37.285,22.757,50.451c8.002,6.834,16.577,13.004,24.983,19.352c1.293,0.977,3.084,1.292,4.644,1.916
	c0.438,0.174,1.038,0.219,1.281,0.539c2.599,3.393,1.551,9.142-2.061,11.57c-0.417,0.278-0.864,0.527-1.229,0.862
	c-11.556,10.604-20.43,22.947-24.749,38.231c-4.622,16.351-3.165,32.496,2.073,48.379c9.858,29.881,30.389,47.146,61.637,51.55
	c12.319,1.735,24.683,1.809,37.047,0.891c13.17-0.978,26.379-1.844,39.256-5.046c28.582-7.112,48.61-24.224,60.012-51.437
	c8.754-20.896,9.906-42.241,4.25-64.083c-2.291-8.846-2.945-17.826-1.205-26.844c1.928-10.007,7.012-18.271,14.197-25.438
	c1.771-1.772,2.854-4.414,3.74-6.841c0.764-2.104-0.461-4.057-2.642-4.332c-3.444-0.434-6.961-0.363-10.44-0.352
	c-0.613,0.002-1.341,0.655-1.816,1.186c-6.342,7.076-11.895,14.662-15.313,23.646c-5.484,14.425-4.978,29.026-1.128,43.64
	c2.904,11.025,4.484,22.112,3.082,33.495c-3.795,30.73-25.405,55.224-55.653,62.314c-21.875,5.127-44.212,5.822-66.586,5.391
	c-2.819-0.054-5.668-0.528-8.438-1.112c-31.367-6.608-55.919-42.25-47.657-76.217c7.837-32.229,38.712-57.203,73.33-50.525
	c15.397,2.967,28.911,9.497,39.249,21.525c13.834,16.099,17.422,34.931,13.881,55.433c-0.782,4.521-2.04,8.956-2.858,13.472
	c-0.451,2.505,0.137,4.871,2.565,6.313c4.494,2.67,8.189,1.692,10.734-2.902c0.762-1.377,1.428-2.852,1.873-4.36
	c9.73-32.89,2.328-61.371-22.145-85.375c-3.854-3.779-8.005-7.258-12.193-11.031c0.994-0.454,1.748-0.786,2.492-1.141
	c6.858-3.261,13.944-6.125,20.539-9.859c25.52-14.465,38.194-36.522,38.19-65.887c-0.006-16.19-3.094-31.912-7.008-47.516
	c-0.799-3.188-1.619-6.374-2.481-9.768c5.795-0.328,11.223-0.561,16.635-0.956c9.914-0.725,19.938-0.836,29.707-2.47
	c20.58-3.444,37.699-13.721,51.824-28.918c16.512-17.771,26.364-38.717,27.35-63.068C525.753,123.836,515.531,99.254,495.593,79.165
	z"/>
<path fill="#FFFFFF" d="M392.24,293.219c-3.787-28.28-13.383-54.446-29.094-78.283c-6.676-10.128-13.584-20.146-23.029-28.005
	c-10.627-8.845-22.865-13.453-36.754-12.967c-16.688,0.583-30.324,7.873-40.992,20.384c-26.428,30.992-42.176,66.75-45.285,107.458
	c-2.042,26.721,10.997,50.318,38.182,59.602c12.867,4.393,62.438,7.061,63.824,6.964c0.264-0.123,0.526-0.24,0.791-0.372
	c-0.265,0.132-0.527,0.249-0.791,0.372c12.441-0.867,24.417-2.326,35.872-6.79c15.752-6.139,27.754-16.238,34.078-32.285
	C393.651,317.604,393.88,305.466,392.24,293.219z"/>
<g>
	<path stroke="#FFFFFF" stroke-miterlimit="10" d="M298.227,291.201c-0.354,11.986-11.828,19.115-20.287,13.104
		c-7.383-5.246-12.137-4.242-19.418-0.054c-3.666,2.108-12.85,0.447-15.356-2.769c-2.955-3.791-3.763-12.485-1.356-16.662
		c10.144-17.595,43.209-16.986,53.987,0.32C297.208,287.411,297.824,290.17,298.227,291.201z"/>
	<path stroke="#FFFFFF" stroke-miterlimit="10" d="M369.755,290.375c0.348,12.16-10.604,20.167-19.015,14.293
		c-8.055-5.627-13.225-5.023-21.067,0.02c-3.236,2.078-12.342-0.295-15.225-3.676c-2.813-3.293-3.262-11.693-0.981-15.71
		c10.006-17.589,42.548-17.803,53.833-0.954C368.771,286.547,369.351,289.344,369.755,290.375z"/>
</g>
<rect x="113.666" y="78.05" fill="none" width="262.826" height="224.246"/>
<g>
	<rect x="234.975" y="78.05" fill="none" width="262.831" height="224.246"/>
</g>
<g>
	<path fill="#1A1A18" stroke="#FFFFFF" stroke-miterlimit="10" d="M323.785,327.625c1.226-2.179,3.029-2.826,5.038-1.827
		c2.011,1.003,2.273,3.322,2.23,5.666c-0.099,5.906-1.133,11.39-3.637,16.239c-5.595-3.43-12.71-2.229-16.751,3.133
		c-1.396,1.852-2.835,2.379-4.706,1.346c-2.355-1.3-4.773-1.772-7.214-1.736c-3.914,0.057-7.013,1.756-8.353,6.604
		c-5.938-4.016-10.346-9.887-13.387-17.335c-1.417-3.475,1.247-6.031,4.587-4.77c7.6,7.191,15.744,11.82,25,9.26
		C314.393,342.048,319.504,335.407,323.785,327.625z"/>
	<path fill="#8C2621" stroke="#FFFFFF" stroke-miterlimit="10" d="M290.395,357.051c1.339-4.85,4.438-6.549,8.353-6.605
		c2.44-0.035,4.858,0.438,7.214,1.736c1.871,1.035,3.311,0.506,4.705-1.345c4.043-5.362,11.157-6.562,16.752-3.133
		c-2.538,7.173-7.163,11.38-13.072,13.562C306.171,364.281,298.148,363.018,290.395,357.051z"/>
	<path fill="#FFFFFF" stroke="#FFFFFF" stroke-miterlimit="10" d="M323.785,327.625c-4.281,7.782-9.394,14.423-17.19,16.581
		c-9.255,2.562-17.4-2.067-25-9.261c3.967,0.169,7.945,0.512,11.896,0.472c9.916-0.103,19.275-2.743,28.123-7.528
		C322.293,327.523,322.905,326.604,323.785,327.625z"/>
</g>
<g>
	<path fill="#E9BE30" stroke="#000000" stroke-width="3" stroke-miterlimit="10" d="M62.143,448.162
		c-0.07-3.286,0.433-5.128,4.256-4.248c1.443,0.332,2.983,0.22,4.474,0.376c17.864,1.871,35.725,3.801,53.595,5.627
		c27.634,2.824,55.271,5.609,82.914,8.33c3.431,0.337,5.386,1.242,4.91,5.328c-0.44,3.778-0.27,7.66-0.035,11.476
		c0.167,2.729-0.613,4.001-3.37,4.968c-7.256,2.544-11.297,8.813-10.629,16.197c0.676,7.476,5.359,12.403,11.568,15.771
		c4.521,2.453,2.136,6.229,2.103,9.239c-0.03,2.775-2.905,0.993-4.372,0.854c-16.557-1.584-33.099-3.332-49.646-5.004
		c-30.614-3.096-61.229-6.191-91.852-9.213c-2.806-0.277-3.996-1.146-3.923-4.255c0.219-9.319,0.079-18.647,0.077-27.973
		C62.211,466.478,62.338,457.315,62.143,448.162z M112.678,482.985c8.703-0.194,15.614-7.418,15.523-16.224
		c-0.095-8.94-7.441-15.979-16.474-15.779c-8.697,0.192-15.616,7.426-15.522,16.228C96.301,476.151,103.646,483.188,112.678,482.985
		z M94.197,490.85c-0.068-5.589-4.646-9.985-10.255-9.855c-5.384,0.125-9.681,4.488-9.732,9.882
		c-0.058,5.607,4.408,10.116,10.007,10.108C89.813,500.976,94.268,496.452,94.197,490.85z M163.68,490.997
		c-5.363,0.252-9.547,4.731-9.471,10.141c0.078,5.587,4.668,9.986,10.27,9.847c5.569-0.142,9.922-4.797,9.721-10.396
		C173.997,495.024,169.289,490.732,163.68,490.997z"/>
	<path fill="#E9BE30" stroke="#000000" stroke-width="3" stroke-miterlimit="10" d="M206.568,454.106
		c-18.041-1.814-36.083-3.605-54.121-5.447c-28.305-2.89-56.598-5.896-84.918-8.625c-4.092-0.395-5.864-1.424-4.385-5.635
		c0.272-0.773,0.275-1.638,0.476-2.441c7.134-28.794,34.478-48.3,63.01-50.965c2.512-0.234,3.988,1.001,5.604,2.508
		c12.907,12.044,25.86,24.04,38.782,36.069c12.022,11.191,24.025,22.406,36.036,33.61
		C206.891,453.489,206.729,453.798,206.568,454.106z M117.041,410.734c0.053-7.832-6.026-13.918-13.808-13.825
		c-8.518,0.101-15.999,7.911-15.865,16.563c0.117,7.667,6.021,13.58,13.559,13.58C109.477,427.055,116.983,419.452,117.041,410.734z
		 M152.952,432.907c6.021,0.244,11.878-5.409,12.04-11.625c0.139-5.308-4.251-10.011-9.539-10.22
		c-6.043-0.238-11.875,5.389-12.041,11.617C143.271,427.977,147.67,432.692,152.952,432.907z"/>
	<path fill="#050305" d="M111.729,450.982c9.031-0.2,16.379,6.839,16.474,15.779c0.091,8.806-6.82,16.028-15.523,16.224
		c-9.031,0.201-16.377-6.834-16.473-15.775C96.112,458.408,103.031,451.176,111.729,450.982z M120.777,475.213
		c4.976-5.156,4.497-12.018-1.198-17.251c-5.485-4.047-11.109-3.889-15.605,0.439c-4.648,4.477-4.94,10.334-0.797,15.958
		C108.537,480.191,115.642,480.536,120.777,475.213z"/>
	<path fill="#050305" d="M74.209,490.875c0.053-5.394,4.35-9.757,9.732-9.882c5.609-0.13,10.187,4.268,10.255,9.855
		c0.07,5.604-4.385,10.126-9.98,10.135C78.617,500.991,74.152,496.482,74.209,490.875z M88.322,495.106
		c2.474-2.476,2.882-5.395-0.051-8.062c-2.664-2.999-5.621-2.732-8.18-0.172c-2.557,2.559-2.826,5.516,0.169,8.182
		C82.929,497.977,85.848,497.581,88.322,495.106z"/>
	<path fill="#050305" d="M164.479,510.983c-5.602,0.141-10.19-4.26-10.27-9.847c-0.076-5.408,4.106-9.889,9.471-10.141
		c5.609-0.265,10.317,4.027,10.52,9.59C174.4,506.188,170.048,510.843,164.479,510.983z M168.322,505.106
		c2.474-2.476,2.882-5.395-0.051-8.062c-2.664-2.999-5.621-2.732-8.18-0.172c-2.557,2.559-2.826,5.516,0.169,8.182
		C162.929,507.977,165.848,507.581,168.322,505.106z"/>
	<path fill="#050305" d="M87.368,413.473c-0.134-8.652,7.349-16.463,15.865-16.563c7.78-0.094,13.859,5.994,13.808,13.824
		c-0.059,8.719-7.564,16.32-16.114,16.319C93.389,427.054,87.486,421.141,87.368,413.473z M102.643,422.863
		c4.771-0.786,8.066-3.811,9.498-8.432c1.348-4.353,1.111-8.49-3.125-11.418c-4.709-2.964-8.893-2.699-12.992,0.816
		c-4.388,3.763-5.418,9.054-2.834,14.559C95.065,422.567,98.679,423.517,102.643,422.863z"/>
	<path fill="#050305" d="M155.453,411.063c5.288,0.209,9.678,4.912,9.539,10.221c-0.162,6.216-6.019,11.869-12.04,11.625
		c-5.282-0.215-9.683-4.932-9.54-10.228C143.578,416.451,149.41,410.824,155.453,411.063z M150.133,417.501
		c-2.642,2.578-3.856,5.745-0.947,9.113c2.956,3.418,6.174,2.58,8.899,0.016c3.006-2.829,4.152-6.239,0.702-9.753
		C155.674,413.839,152.626,415.066,150.133,417.501z"/>
	<path fill="#D38034" d="M103.176,474.359c5.361,5.832,12.466,6.177,17.602,0.854c4.976-5.156,4.497-12.018-1.2-17.251
		C106.871,455.37,100.586,461.654,103.176,474.359z"/>
	<path fill="#E9BE30" d="M103.176,474.359c-2.59-12.705,3.695-18.989,16.4-16.397c-5.483-4.047-11.107-3.889-15.604,0.439
		C99.323,462.878,99.031,468.735,103.176,474.359z"/>
	<path fill="#D38034" d="M80.261,495.056c2.668,2.921,5.587,2.525,8.062,0.052c2.474-2.476,2.882-5.395-0.052-8.062
		C81.974,487.464,80.678,488.761,80.261,495.056z"/>
	<path fill="#E9BE30" d="M80.261,495.056c0.417-6.295,1.713-7.592,8.01-8.01c-2.663-2.999-5.62-2.731-8.179-0.172
		C77.535,489.433,77.266,492.39,80.261,495.056z"/>
	<path fill="#D38034" d="M160.261,505.056c2.668,2.921,5.587,2.525,8.062,0.052c2.474-2.476,2.882-5.395-0.052-8.062
		C161.974,497.464,160.678,498.761,160.261,505.056z"/>
	<path fill="#E9BE30" d="M160.261,505.056c0.417-6.295,1.713-7.592,8.01-8.01c-2.663-2.999-5.62-2.731-8.179-0.172
		C157.535,499.433,157.266,502.39,160.261,505.056z"/>
	<path fill="#D38034" d="M93.189,418.389c1.876,4.18,5.489,5.128,9.453,4.476c4.771-0.786,8.066-3.81,9.498-8.433
		c1.348-4.352,1.111-8.49-3.125-11.418c-5.643-0.676-10.798-0.242-14.106,5.385C93.042,411.566,93.125,414.951,93.189,418.389z"/>
	<path fill="#E9BE30" d="M93.189,418.389c-0.063-3.438-0.146-6.82,1.72-9.99c3.31-5.627,8.465-6.061,14.106-5.385
		c-4.709-2.963-8.893-2.699-12.992,0.817C91.636,407.594,90.605,412.885,93.189,418.389z"/>
	<path fill="#D38034" d="M149.186,426.614c2.956,3.418,6.174,2.58,8.899,0.016c3.006-2.829,4.152-6.239,0.702-9.752
		C151.329,417.121,149.29,419.188,149.186,426.614z"/>
	<path fill="#E9BE30" d="M149.186,426.614c0.104-7.427,2.145-9.493,9.603-9.736c-3.113-3.039-6.161-1.812-8.654,0.623
		C147.491,420.079,146.276,423.246,149.186,426.614z"/>
</g>
<rect x="113.931" y="83.927" fill-rule="evenodd" clip-rule="evenodd" fill="none" width="262.826" height="224.246"/>
<text transform="matrix(1 0 0 1 113.9309 197.6846)" fill="#211915" stroke="#211915" stroke-width="2" stroke-linecap="round" stroke-miterlimit="10" font-family="'Monospace'" font-size="180">C</text>
<g>
	<rect x="235.24" y="83.927" fill="none" width="262.83" height="224.246"/>
	
		<text transform="matrix(-1 0 0 1 498.0686 197.6846)" fill="#211915" stroke="#211915" stroke-width="2" stroke-linecap="round" stroke-miterlimit="10" font-family="'Monospace'" font-size="180">C</text>
</g>
</svg>
